<svg width="115" height="50" viewBox="0 0 115 50" fill="none" xmlns="http://www.w3.org/2000/svg">
<path d="M7.884 4.974C10.332 4.974 11.754 6.738 12.15 10.266C12.15 13.182 11.466 15.018 10.098 15.774H9.774C8.73 15.702 8.208 15.324 8.208 14.64L8.424 10.59V8.592L8.1 8.214H7.56C6.408 8.214 5.058 11.418 3.51 17.826L3.186 21.876V23.064C3.186 26.808 4.86 29.004 8.208 29.652H10.476C14.22 29.652 18.756 27.24 24.084 22.416H24.3C25.272 22.416 25.83 23.028 25.974 24.252C25.146 26.412 24.174 27.492 23.058 27.492C17.91 31.164 13.284 33 9.18 33C5.076 33 2.178 30.75 0.486 26.25L0 22.416V21.714C0 16.134 1.566 11.004 4.698 6.324C5.706 5.424 6.768 4.974 7.884 4.974ZM30.294 3.192C31.302 3.192 31.806 4.416 31.806 6.864L32.454 16.152H32.67L35.37 15.126C38.394 15.126 40.23 18.222 40.878 24.414C41.13 26.178 41.256 28.77 41.256 32.19V36.564C41.256 37.932 40.752 38.616 39.744 38.616H39.528C38.556 38.472 38.07 37.95 38.07 37.05V31.974C38.07 23.838 37.278 19.338 35.694 18.474H35.37C34.29 18.474 33.498 20.13 32.994 23.442V26.466C32.994 31.866 32.544 34.566 31.644 34.566L30.618 34.674C29.61 34.674 29.106 33.18 29.106 30.192C29.214 27.024 29.43 24.432 29.754 22.416L28.62 4.65C28.62 3.714 29.178 3.228 30.294 3.192ZM53.8916 12.156C55.4756 12.156 56.2676 12.786 56.2676 14.046L55.7816 15.072L55.4576 24.954C55.4576 29.418 56.3576 32.19 58.1576 33.27L58.2656 34.08C58.1576 35.124 57.6716 35.646 56.8076 35.646H56.4836C53.7836 33.81 52.4336 31.002 52.4336 27.222H52.0556C50.6156 31.254 48.8696 33.27 46.8176 33.27C44.9096 32.73 43.9556 31.308 43.9556 29.004C43.9556 23.928 45.9896 18.87 50.0576 13.83C51.4256 12.714 52.7036 12.156 53.8916 12.156ZM47.3576 26.844L47.1416 28.356V29.382H47.6816C50.3816 22.65 51.7316 18.546 51.7316 17.07H51.5156C49.4276 19.41 48.0416 22.668 47.3576 26.844ZM65.9332 0.221997C66.9412 0.437999 67.4452 0.941999 67.4452 1.734L67.1212 4.11V4.812C67.1212 6.396 67.3012 8.07 67.6612 9.834H67.7692C71.9452 8.574 74.5372 7.944 75.5452 7.944C76.5892 8.232 77.1112 8.754 77.1112 9.51C77.1112 10.734 75.8692 11.346 73.3852 11.346L67.7692 13.344C67.7692 18.204 68.2912 24.81 69.3352 33.162C69.1192 34.134 68.5972 34.62 67.7692 34.62H67.6612C66.4012 34.62 65.7712 33 65.7712 29.76C65.3032 27.348 64.9072 22.11 64.5832 14.046H63.6112C60.2272 13.83 58.5352 13.038 58.5352 11.67C58.5352 11.274 58.9132 10.788 59.6692 10.212H60.2092L62.6932 10.86H64.4212L63.9352 4.11C63.9352 1.518 64.6012 0.221997 65.9332 0.221997ZM91.0685 8.7C91.0685 3.516 91.8605 0.923998 93.4445 0.923998C95.0285 0.923998 95.8205 3.858 95.8205 9.726L95.1185 17.664C95.1185 24.432 96.0185 29.652 97.8185 33.324V33.54C97.8185 34.26 97.3325 34.71 96.3605 34.89H96.1445C94.8125 34.818 93.6425 32.28 92.6345 27.276H92.4185C90.5465 32.892 88.1525 35.7 85.2365 35.7C82.3205 35.7 80.4485 33.342 79.6205 28.626L79.4585 25.44V24.414L80.2685 12.102V9.726C80.2685 9.006 80.6825 8.448 81.5105 8.052H81.9965C83.0045 8.052 83.5085 8.718 83.5085 10.05V10.374L82.6445 24.792V26.79C82.6445 29.67 83.3285 31.578 84.6965 32.514H85.6685C87.5045 31.398 89.2685 27.618 90.9605 21.174L91.7705 17.502L91.0685 8.7ZM107.389 16.962C111.205 16.962 113.455 19.356 114.139 24.144C114.139 28.392 112.159 31.434 108.199 33.27C107.767 33.486 107.173 33.594 106.417 33.594H106.039L104.851 33.486V33.594L105.067 48.012C104.815 49.128 104.239 49.686 103.339 49.686C102.331 49.362 101.827 48.84 101.827 48.12L101.341 18.744C101.341 17.808 101.899 17.322 103.015 17.286L104.149 17.772C105.157 17.232 106.237 16.962 107.389 16.962ZM104.689 22.686L104.527 24.36L104.689 30.084L106.201 30.462C108.613 30.462 110.179 28.698 110.899 25.17V24.36C110.647 21.516 109.639 20.094 107.875 20.094H107.065C105.481 20.094 104.689 20.958 104.689 22.686Z" fill="white"/>
</svg>
